# xmcd
#
# Track frame offsets:
#	150
#	14190
#	34257
#	60192
#	78887
#	92380
#	106177
#	127582
#	163785
#	187370
#	213257
#	243122
#	278462
#	310287
#
# Disc length: 4619 seconds
#
# Revision: 3
# Processed by: cddbd v1.5.2PL0 Copyright (c) Steve Scherf et al.
# Submitted via: audiograbber 1.83.01
#
DISCID=ab12090e
DTITLE=Janis Joplin - Joplin In Concert
DYEAR=1972
DGENRE=Rock
TTITLE0=Down On Me
TTITLE1=Bye, Bye Baby
TTITLE2=All Is Loneliness
TTITLE3=Piece Of My Heart
TTITLE4=Road Block
TTITLE5=Flower In The Sun
TTITLE6=Summertime
TTITLE7=Ego Rock
TTITLE8=Half Moon
TTITLE9=Kozmic Blues
TTITLE10=Move Over
TTITLE11=Try (Just A Little Bit Harder)
TTITLE12=Get It While You Can
TTITLE13=Ball And Chain
EXTD=
EXTT0=
EXTT1=
EXTT2=
EXTT3=
EXTT4=
EXTT5=
EXTT6=
EXTT7=
EXTT8=
EXTT9=
EXTT10=
EXTT11=
EXTT12=
EXTT13=
PLAYORDER=
